<?xml version="1.0" encoding="utf-8"?>
<!-- Generator: Adobe Illustrator 23.1.1, SVG Export Plug-In . SVG Version: 6.00 Build 0)  -->
<svg version="1.1" id="Layer_1" xmlns="http://www.w3.org/2000/svg" xmlns:xlink="http://www.w3.org/1999/xlink" x="0px" y="0px"
	 viewBox="0 0 272.9 172.6" style="enable-background:new 0 0 272.9 172.6;" xml:space="preserve">
<style type="text/css">
	.st0{fill-rule:evenodd;clip-rule:evenodd;fill:#7E7D79;stroke:#000000;stroke-width:0.576;stroke-miterlimit:2.4142;}
	.st1{fill-rule:evenodd;clip-rule:evenodd;fill:#73716D;stroke:#000000;stroke-width:0.576;stroke-miterlimit:2.4142;}
	.st2{fill:#5E5C57;stroke:#000000;stroke-width:0.5744;stroke-linecap:round;}
	.st3{fill:#7E7D79;stroke:#000000;stroke-width:0.576;stroke-miterlimit:2.4142;}
	.st4{clip-path:url(#SVGID_2_);}
	.st5{fill:none;stroke:#FFFFFF;stroke-width:2.16;stroke-miterlimit:10;}
	.st6{fill:none;stroke:#FFFFFF;stroke-width:1.26;stroke-miterlimit:2.4142;}
	.st7{fill:#FFFFFF;}
	.st8{font-family:'Helvetica';}
	.st9{font-size:12px;}
	.st10{font-size:16px;}
	.st11{clip-path:url(#SVGID_6_);}
	.st12{clip-path:url(#SVGID_8_);fill:url(#SVGID_9_);}
	.st13{clip-path:url(#SVGID_11_);fill:none;stroke:#000000;stroke-width:0.576;stroke-linecap:round;stroke-linejoin:round;}
	.st14{clip-path:url(#SVGID_13_);fill:url(#SVGID_14_);}
	.st15{clip-path:url(#SVGID_16_);fill:#262626;}
	.st16{clip-path:url(#SVGID_16_);fill:none;stroke:#000000;stroke-width:0.63;stroke-miterlimit:10;}
	.st17{clip-path:url(#SVGID_16_);fill:#2E2E2E;}
	.st18{clip-path:url(#SVGID_16_);fill:none;stroke:#4C4C4C;stroke-width:1.796;stroke-miterlimit:1;}
	.st19{clip-path:url(#SVGID_16_);fill:none;stroke:#666666;stroke-width:1.796;stroke-miterlimit:1;}
	.st20{clip-path:url(#SVGID_16_);fill:none;stroke:#454545;stroke-width:1.796;stroke-miterlimit:1;}
	.st21{clip-path:url(#SVGID_16_);fill:none;stroke:#525252;stroke-width:1.796;stroke-miterlimit:1;}
	.st22{clip-path:url(#SVGID_16_);fill:none;stroke:#000000;stroke-width:0.576;stroke-miterlimit:2.414;}
	.st23{clip-path:url(#SVGID_16_);}
	.st24{clip-path:url(#SVGID_18_);fill:url(#SVGID_19_);}
	.st25{clip-path:url(#SVGID_21_);fill:none;stroke:#000000;stroke-width:0.576;stroke-miterlimit:2.414;}
	.st26{display:none;}
	.st27{display:inline;}
	.st28{clip-path:url(#SVGID_23_);}
	.st29{clip-path:url(#SVGID_25_);fill:url(#SVGID_26_);}
	.st30{clip-path:url(#SVGID_28_);fill:none;stroke:#000000;stroke-width:0.576;stroke-linecap:round;stroke-linejoin:round;}
	.st31{clip-path:url(#SVGID_30_);fill:url(#SVGID_31_);}
	.st32{clip-path:url(#SVGID_33_);fill:#262626;}
	.st33{clip-path:url(#SVGID_33_);fill:none;stroke:#000000;stroke-width:0.63;stroke-miterlimit:10;}
	.st34{clip-path:url(#SVGID_33_);fill:#2E2E2E;}
	.st35{clip-path:url(#SVGID_33_);fill:none;stroke:#4C4C4C;stroke-width:1.796;stroke-miterlimit:1;}
	.st36{clip-path:url(#SVGID_33_);fill:none;stroke:#666666;stroke-width:1.796;stroke-miterlimit:1;}
	.st37{clip-path:url(#SVGID_33_);fill:none;stroke:#454545;stroke-width:1.796;stroke-miterlimit:1;}
	.st38{clip-path:url(#SVGID_33_);fill:none;stroke:#525252;stroke-width:1.796;stroke-miterlimit:1;}
	.st39{clip-path:url(#SVGID_33_);fill:none;stroke:#000000;stroke-width:0.576;stroke-miterlimit:2.414;}
	.st40{clip-path:url(#SVGID_33_);}
	.st41{clip-path:url(#SVGID_35_);fill:url(#SVGID_36_);}
	.st42{clip-path:url(#SVGID_38_);fill:none;stroke:#000000;stroke-width:0.576;stroke-miterlimit:2.414;}
	.st43{clip-path:url(#SVGID_40_);}
	.st44{clip-path:url(#SVGID_42_);fill:url(#SVGID_43_);}
	.st45{clip-path:url(#SVGID_45_);fill:none;stroke:#000000;stroke-width:0.576;stroke-linecap:round;stroke-linejoin:round;}
	.st46{clip-path:url(#SVGID_47_);fill:url(#SVGID_48_);}
	.st47{clip-path:url(#SVGID_50_);fill:#262626;}
	.st48{clip-path:url(#SVGID_50_);fill:none;stroke:#000000;stroke-width:0.63;stroke-miterlimit:10;}
	.st49{clip-path:url(#SVGID_50_);fill:#2E2E2E;}
	.st50{clip-path:url(#SVGID_50_);fill:none;stroke:#4C4C4C;stroke-width:1.796;stroke-miterlimit:1;}
	.st51{clip-path:url(#SVGID_50_);fill:none;stroke:#666666;stroke-width:1.796;stroke-miterlimit:1;}
	.st52{clip-path:url(#SVGID_50_);fill:none;stroke:#454545;stroke-width:1.796;stroke-miterlimit:1;}
	.st53{clip-path:url(#SVGID_50_);fill:none;stroke:#525252;stroke-width:1.796;stroke-miterlimit:1;}
	.st54{clip-path:url(#SVGID_50_);fill:none;stroke:#000000;stroke-width:0.576;stroke-miterlimit:2.414;}
	.st55{clip-path:url(#SVGID_50_);}
	.st56{clip-path:url(#SVGID_52_);fill:url(#SVGID_53_);}
	.st57{clip-path:url(#SVGID_55_);fill:none;stroke:#000000;stroke-width:0.576;stroke-miterlimit:2.414;}
	.st58{clip-path:url(#SVGID_57_);}
	.st59{clip-path:url(#SVGID_59_);fill:url(#SVGID_60_);}
	.st60{clip-path:url(#SVGID_62_);fill:none;stroke:#000000;stroke-width:0.4182;stroke-linecap:round;stroke-linejoin:round;}
	.st61{clip-path:url(#SVGID_64_);fill:url(#SVGID_65_);}
	.st62{clip-path:url(#SVGID_67_);fill:#262626;}
	.st63{clip-path:url(#SVGID_67_);fill:none;stroke:#000000;stroke-width:0.4574;stroke-miterlimit:10;}
	.st64{clip-path:url(#SVGID_67_);fill:#2E2E2E;}
	.st65{clip-path:url(#SVGID_67_);fill:none;stroke:#4C4C4C;stroke-width:1.3039;stroke-miterlimit:1;}
	.st66{clip-path:url(#SVGID_67_);fill:none;stroke:#666666;stroke-width:1.3039;stroke-miterlimit:1;}
	.st67{clip-path:url(#SVGID_67_);fill:none;stroke:#454545;stroke-width:1.3039;stroke-miterlimit:1;}
	.st68{clip-path:url(#SVGID_67_);fill:none;stroke:#525252;stroke-width:1.3039;stroke-miterlimit:1;}
	.st69{clip-path:url(#SVGID_67_);fill:none;stroke:#000000;stroke-width:0.4182;stroke-miterlimit:2.414;}
	.st70{clip-path:url(#SVGID_67_);}
	.st71{clip-path:url(#SVGID_69_);fill:url(#SVGID_70_);}
	.st72{clip-path:url(#SVGID_72_);fill:none;stroke:#000000;stroke-width:0.4182;stroke-miterlimit:2.414;}
	.st73{clip-path:url(#SVGID_74_);}
	.st74{clip-path:url(#SVGID_76_);fill:url(#SVGID_77_);}
	.st75{clip-path:url(#SVGID_79_);fill:none;stroke:#000000;stroke-width:0.576;stroke-linecap:round;stroke-linejoin:round;}
	.st76{clip-path:url(#SVGID_81_);fill:url(#SVGID_82_);}
	.st77{clip-path:url(#SVGID_84_);fill:#262626;}
	.st78{clip-path:url(#SVGID_84_);fill:none;stroke:#000000;stroke-width:0.63;stroke-miterlimit:10;}
	.st79{clip-path:url(#SVGID_84_);fill:#2E2E2E;}
	.st80{clip-path:url(#SVGID_84_);fill:none;stroke:#4C4C4C;stroke-width:1.796;stroke-miterlimit:1;}
	.st81{clip-path:url(#SVGID_84_);fill:none;stroke:#666666;stroke-width:1.796;stroke-miterlimit:1;}
	.st82{clip-path:url(#SVGID_84_);fill:none;stroke:#454545;stroke-width:1.796;stroke-miterlimit:1;}
	.st83{clip-path:url(#SVGID_84_);fill:none;stroke:#525252;stroke-width:1.796;stroke-miterlimit:1;}
	.st84{clip-path:url(#SVGID_84_);fill:none;stroke:#000000;stroke-width:0.576;stroke-miterlimit:2.414;}
	.st85{clip-path:url(#SVGID_84_);}
	.st86{clip-path:url(#SVGID_86_);fill:url(#SVGID_87_);}
	.st87{clip-path:url(#SVGID_89_);fill:none;stroke:#000000;stroke-width:0.576;stroke-miterlimit:2.414;}
	.st88{clip-path:url(#SVGID_91_);}
	.st89{clip-path:url(#SVGID_93_);fill:url(#SVGID_94_);}
	.st90{clip-path:url(#SVGID_96_);fill:none;stroke:#000000;stroke-width:0.4182;stroke-linecap:round;stroke-linejoin:round;}
	.st91{clip-path:url(#SVGID_98_);fill:url(#SVGID_99_);}
	.st92{clip-path:url(#SVGID_101_);fill:#262626;}
	.st93{clip-path:url(#SVGID_101_);fill:none;stroke:#000000;stroke-width:0.4574;stroke-miterlimit:10;}
	.st94{clip-path:url(#SVGID_101_);fill:#2E2E2E;}
	.st95{clip-path:url(#SVGID_101_);fill:none;stroke:#4C4C4C;stroke-width:1.3039;stroke-miterlimit:1;}
	.st96{clip-path:url(#SVGID_101_);fill:none;stroke:#666666;stroke-width:1.3039;stroke-miterlimit:1;}
	.st97{clip-path:url(#SVGID_101_);fill:none;stroke:#454545;stroke-width:1.3039;stroke-miterlimit:1;}
	.st98{clip-path:url(#SVGID_101_);fill:none;stroke:#525252;stroke-width:1.3039;stroke-miterlimit:1;}
	.st99{clip-path:url(#SVGID_101_);fill:none;stroke:#000000;stroke-width:0.4182;stroke-miterlimit:2.414;}
	.st100{clip-path:url(#SVGID_101_);}
	.st101{clip-path:url(#SVGID_103_);fill:url(#SVGID_104_);}
	.st102{clip-path:url(#SVGID_106_);fill:none;stroke:#000000;stroke-width:0.4182;stroke-miterlimit:2.414;}
	.st103{opacity:0;}
	.st104{fill:#FFFFFF;stroke:#000000;stroke-miterlimit:10;}
</style>
<symbol  id="screw__x28_flathead_x29_" viewBox="-13.8 -13.8 27.6 27.6">
	<path class="st0" d="M13.5,0c0,7.5-6,13.5-13.5,13.5S-13.5,7.5-13.5,0s6-13.5,13.5-13.5S13.5-7.5,13.5,0z"/>
	<path class="st1" d="M10.1,0c0,5.6-4.5,10.1-10.1,10.1S-10.1,5.6-10.1,0S-5.6-10.1,0-10.1S10.1-5.6,10.1,0z"/>
	<path class="st0" d="M-1.7,8.8V-8.8C-5.9-7.9-9-4.3-9,0C-8.9,4.2-6,7.9-1.7,8.8L-1.7,8.8z"/>
	<path class="st0" d="M1.7-8.8C6-7.9,8.9-4.2,8.9,0c0,4.3-3.1,7.9-7.2,8.8L1.7-8.8L1.7-8.8z"/>
</symbol>
<g id="Maintenance_2_">
	<g id="panel_x5F_bg">
		<rect x="0.3" y="0.3" class="st2" width="272.4" height="172"/>
		<path class="st3" d="M22.1,54.2H1.7v118.1h271V1.9H1.7v22.5h20.4c8.2,0,14.9,6.7,14.9,14.9S30.3,54.2,22.1,54.2z"/>
		<g>
			<g>
				<defs>
					<rect id="SVGID_1_" x="8.3" y="25.5" width="27.6" height="27.6"/>
				</defs>
				<clipPath id="SVGID_2_">
					<use xlink:href="#SVGID_1_"  style="overflow:visible;"/>
				</clipPath>
				<g class="st4">
					<g>
						<defs>
							<rect id="SVGID_3_" x="8.3" y="25.5" width="27.6" height="27.6"/>
						</defs>
						<clipPath id="SVGID_4_">
							<use xlink:href="#SVGID_3_"  style="overflow:visible;"/>
						</clipPath>
						<g style="clip-path:url(#SVGID_4_);">
							
								<use xlink:href="#screw__x28_flathead_x29_"  width="27.6" height="27.6" id="XMLID_133_" x="-13.8" y="-13.8" transform="matrix(1 0 0 -1 22.0826 39.3088)" style="overflow:visible;"/>
						</g>
					</g>
				</g>
			</g>
		</g>
		<line class="st5" x1="16.9" y1="16.4" x2="139.9" y2="16.4"/>
		<circle class="st6" cx="212.9" cy="119.2" r="39.5"/>
		<circle class="st6" cx="89.7" cy="119.2" r="39.5"/>
		<line class="st6" x1="213.1" y1="73.3" x2="213.1" y2="79.7"/>
		<line class="st6" x1="180.4" y1="86.7" x2="184.9" y2="91.3"/>
		<line class="st6" x1="245.3" y1="86.7" x2="240.8" y2="91.3"/>
		<line class="st6" x1="89.7" y1="73.3" x2="89.7" y2="79.7"/>
		<line class="st6" x1="57.3" y1="86.7" x2="61.8" y2="91.3"/>
		<line class="st6" x1="122.1" y1="86.7" x2="117.6" y2="91.3"/>
		<polyline class="st5" points="175.7,43.6 165.3,43.6 134.8,74.1 		"/>
		<text transform="matrix(1 0 0 1 178.6636 47.5659)" class="st7 st8 st9">DATA UPLOAD</text>
		<text transform="matrix(1 0 0 1 200.6797 70.0659)" class="st7 st8 st9">OFF</text>
		<text transform="matrix(1 0 0 1 246.5474 85.0659)" class="st7 st8 st9">B</text>
		<text transform="matrix(1 0 0 1 170.0318 87.0659)" class="st7 st8 st9">A</text>
		<text transform="matrix(1 0 0 1 69.9268 70.0659)" class="st7 st8 st9">NORM</text>
		<text transform="matrix(1 0 0 1 117.6704 85.0659)" class="st7 st8 st9">UPLOAD</text>
		<text transform="matrix(1 0 0 1 16.1407 85.0659)" class="st7 st8 st9">MAINT</text>
		<text transform="matrix(1 0 0 1 60.4864 47.5659)" class="st7 st8 st9">AIRCRAFT</text>
		<text transform="matrix(1 0 0 1 145.4908 20.0659)" class="st7 st8 st10">MAINTENANCE</text>
	</g>
	<g id="data_x5F_upload_x5F_off">
		<g>
			<defs>
				<rect id="SVGID_5_" x="176.7" y="82.8" width="72.4" height="81"/>
			</defs>
			<clipPath id="SVGID_6_">
				<use xlink:href="#SVGID_5_"  style="overflow:visible;"/>
			</clipPath>
			<g class="st11">
				<defs>
					<path id="SVGID_7_" d="M177,119c0,19.8,16.1,35.9,35.9,35.9s35.9-16.1,35.9-35.9c0-19.8-16.1-35.9-35.9-35.9S177,99.1,177,119"
						/>
				</defs>
				<clipPath id="SVGID_8_">
					<use xlink:href="#SVGID_7_"  style="overflow:visible;"/>
				</clipPath>
				
					<linearGradient id="SVGID_9_" gradientUnits="userSpaceOnUse" x1="-1.8204" y1="170.953" x2="-0.8204" y2="170.953" gradientTransform="matrix(-50.96 50.9609 -50.9609 -50.96 8857.8105 8897.7314)">
					<stop  offset="0" style="stop-color:#404040"/>
					<stop  offset="1" style="stop-color:#191919"/>
				</linearGradient>
				<polygon class="st12" points="212.9,47.2 141.1,119 212.9,190.8 284.7,119 				"/>
			</g>
			<g class="st11">
				<defs>
					<rect id="SVGID_10_" x="176.7" y="82.8" width="72.4" height="81"/>
				</defs>
				<clipPath id="SVGID_11_">
					<use xlink:href="#SVGID_10_"  style="overflow:visible;"/>
				</clipPath>
				<circle class="st13" cx="212.9" cy="119" r="35.9"/>
			</g>
			<g class="st11">
				<defs>
					<path id="SVGID_12_" d="M204.2,84.3c2.1-0.5,2,2.2,1.4,3.6c0,0-11.8,28.3-12.2,30.8v36.8c0,2.4,2.1,4.5,5.1,5.8
						c3.3,1.4,8.5,2.2,14.5,2.2s11.2-0.8,14.5-2.2c3-1.3,5.1-3.4,5.1-5.8v-36.8c-0.4-2.5-12.2-30.8-12.2-30.8
						c-0.7-1.4-0.7-4.1,1.4-3.6c-2.8-0.7-5.8-1.1-8.8-1.1S207,83.6,204.2,84.3"/>
				</defs>
				<clipPath id="SVGID_13_">
					<use xlink:href="#SVGID_12_"  style="overflow:visible;"/>
				</clipPath>
				
					<linearGradient id="SVGID_14_" gradientUnits="userSpaceOnUse" x1="-0.1097" y1="170.4069" x2="0.8903" y2="170.4069" gradientTransform="matrix(0 80.5696 -80.5696 0 13942.6035 92.012)">
					<stop  offset="0" style="stop-color:#2B2B2B"/>
					<stop  offset="6.942080e-02" style="stop-color:#393939"/>
					<stop  offset="0.1616" style="stop-color:#444444"/>
					<stop  offset="0.265" style="stop-color:#474747"/>
					<stop  offset="0.5318" style="stop-color:#2E2E2E"/>
					<stop  offset="1" style="stop-color:#2E2E2E"/>
				</linearGradient>
				<rect x="193.4" y="83.2" class="st14" width="39.2" height="80.3"/>
			</g>
			<g class="st11">
				<defs>
					<rect id="SVGID_15_" x="176.7" y="82.8" width="72.4" height="81"/>
				</defs>
				<clipPath id="SVGID_16_">
					<use xlink:href="#SVGID_15_"  style="overflow:visible;"/>
				</clipPath>
				<path class="st15" d="M193.2,152.7c-0.7-0.5-1.7-1.2-1.7-2.3v-28c0-1.1,1-2.5,1.6-3.1"/>
				<path class="st16" d="M193.2,152.7c-0.7-0.5-1.7-1.2-1.7-2.3v-28c0-1.1,1-2.5,1.6-3.1"/>
				<path class="st17" d="M232.5,152.7c0.7-0.5,1.7-1.2,1.7-2.3v-28c0-1.1-1-2.5-1.6-3.1"/>
				<path class="st16" d="M232.5,152.7c0.7-0.5,1.7-1.2,1.7-2.3v-28c0-1.1-1-2.5-1.6-3.1"/>
				<path class="st18" d="M219.3,86.8c-0.2-1-0.1-1.9,0.6-2.6"/>
				<path class="st19" d="M231.9,119.1c-0.4-2.4-11.9-29.9-11.9-29.9c-0.3-0.6-0.6-1.5-0.8-2.3"/>
				<line class="st18" x1="231.9" y1="154.9" x2="231.9" y2="119.1"/>
				<path class="st20" d="M227,160.6c2.9-1.3,4.9-3.3,4.9-5.7"/>
				<path class="st20" d="M198.8,160.6c3.2,1.4,8.2,2.2,14.1,2.2c5.9,0,10.9-0.8,14.1-2.2"/>
				<path class="st20" d="M193.9,154.9c0,2.4,2,4.4,4.9,5.7"/>
				<line class="st20" x1="193.9" y1="119.1" x2="193.9" y2="154.9"/>
				<path class="st21" d="M205.8,84.2c1.5,0.7,0.5,3.6-0.1,4.9c0,0-11.5,27.5-11.9,29.9"/>
				<path class="st22" d="M204.1,84.3L204.1,84.3c2.1-0.5,2,2.2,1.4,3.6c0,0-11.8,28.3-12.2,30.8v36.8c0,2.4,2.1,4.5,5.1,5.8
					c3.3,1.4,8.5,2.2,14.5,2.2s11.2-0.8,14.5-2.2c3-1.3,5.1-3.4,5.1-5.8v-36.8c-0.4-2.5-12.2-30.8-12.2-30.8
					c-0.6-1.4-0.6-4.1,1.4-3.6"/>
				<path class="st23" d="M209.9,118.9V83.3c1-0.1,2-0.1,3-0.1s2,0.1,3,0.1v35.6H209.9z"/>
			</g>
			<g class="st11">
				<defs>
					<path id="SVGID_17_" d="M211.1,83.3v35.6h3.6V83.3c0.2,0-0.8-0.1-1.8-0.1S210.9,83.2,211.1,83.3"/>
				</defs>
				<clipPath id="SVGID_18_">
					<use xlink:href="#SVGID_17_"  style="overflow:visible;"/>
				</clipPath>
				
					<linearGradient id="SVGID_19_" gradientUnits="userSpaceOnUse" x1="0.2477" y1="177.5496" x2="1.2477" y2="177.5496" gradientTransform="matrix(0 -35.7 35.7 0 -6125.6328 127.712)">
					<stop  offset="0" style="stop-color:#D9D9D9"/>
					<stop  offset="5.000000e-02" style="stop-color:#D9D9D9"/>
					<stop  offset="0.5" style="stop-color:#FFFFFF"/>
					<stop  offset="1" style="stop-color:#F2F2F2"/>
				</linearGradient>
				<rect x="210.9" y="83.2" class="st24" width="4" height="35.7"/>
			</g>
			<g class="st11">
				<defs>
					<rect id="SVGID_20_" x="176.7" y="82.8" width="72.4" height="81"/>
				</defs>
				<clipPath id="SVGID_21_">
					<use xlink:href="#SVGID_20_"  style="overflow:visible;"/>
				</clipPath>
				<path class="st25" d="M234.5,147.7c8.7-6.6,14.3-17,14.3-28.7c0-19.8-16.1-35.9-35.9-35.9S177,99.2,177,119
					c0,11.7,5.6,22.1,14.2,28.6"/>
			</g>
		</g>
	</g>
	<g id="aircraft_x5F_norm_1_" class="st26">
		<g class="st27">
			<defs>
				<rect id="SVGID_22_" x="53.5" y="82.8" width="72.4" height="81"/>
			</defs>
			<clipPath id="SVGID_23_">
				<use xlink:href="#SVGID_22_"  style="overflow:visible;"/>
			</clipPath>
			<g class="st28">
				<defs>
					<path id="SVGID_24_" d="M53.8,119c0,19.8,16.1,35.9,35.9,35.9s35.9-16.1,35.9-35.9c0-19.8-16.1-35.9-35.9-35.9
						S53.8,99.1,53.8,119"/>
				</defs>
				<clipPath id="SVGID_25_">
					<use xlink:href="#SVGID_24_"  style="overflow:visible;"/>
				</clipPath>
				
					<linearGradient id="SVGID_26_" gradientUnits="userSpaceOnUse" x1="-0.6118" y1="172.1617" x2="0.3882" y2="172.1617" gradientTransform="matrix(-50.96 50.9609 -50.9609 -50.96 8857.8105 8897.7314)">
					<stop  offset="0" style="stop-color:#404040"/>
					<stop  offset="1" style="stop-color:#191919"/>
				</linearGradient>
				<polygon class="st29" points="89.7,47.2 17.9,119 89.7,190.8 161.5,119 				"/>
			</g>
			<g class="st28">
				<defs>
					<rect id="SVGID_27_" x="53.5" y="82.8" width="72.4" height="81"/>
				</defs>
				<clipPath id="SVGID_28_">
					<use xlink:href="#SVGID_27_"  style="overflow:visible;"/>
				</clipPath>
				<circle class="st30" cx="89.7" cy="119" r="35.9"/>
			</g>
			<g class="st28">
				<defs>
					<path id="SVGID_29_" d="M81,84.3c2.1-0.5,2,2.2,1.4,3.6c0,0-11.8,28.3-12.2,30.8v36.8c0,2.4,2.1,4.5,5.1,5.8
						c3.3,1.4,8.5,2.2,14.5,2.2c6,0,11.2-0.8,14.5-2.2c3-1.3,5.1-3.4,5.1-5.8v-36.8c-0.4-2.5-12.2-30.8-12.2-30.8
						c-0.7-1.4-0.7-4.1,1.4-3.6c-2.8-0.7-5.8-1.1-8.8-1.1S83.8,83.6,81,84.3"/>
				</defs>
				<clipPath id="SVGID_30_">
					<use xlink:href="#SVGID_29_"  style="overflow:visible;"/>
				</clipPath>
				
					<linearGradient id="SVGID_31_" gradientUnits="userSpaceOnUse" x1="-0.1097" y1="171.9358" x2="0.8903" y2="171.9358" gradientTransform="matrix(0 80.5696 -80.5696 0 13942.6035 92.012)">
					<stop  offset="0" style="stop-color:#2B2B2B"/>
					<stop  offset="6.942080e-02" style="stop-color:#393939"/>
					<stop  offset="0.1616" style="stop-color:#444444"/>
					<stop  offset="0.265" style="stop-color:#474747"/>
					<stop  offset="0.5318" style="stop-color:#2E2E2E"/>
					<stop  offset="1" style="stop-color:#2E2E2E"/>
				</linearGradient>
				<rect x="70.2" y="83.2" class="st31" width="39.2" height="80.3"/>
			</g>
			<g class="st28">
				<defs>
					<rect id="SVGID_32_" x="53.5" y="82.8" width="72.4" height="81"/>
				</defs>
				<clipPath id="SVGID_33_">
					<use xlink:href="#SVGID_32_"  style="overflow:visible;"/>
				</clipPath>
				<path class="st32" d="M70,152.7c-0.7-0.5-1.7-1.2-1.7-2.3v-28c0-1.1,1-2.5,1.6-3.1"/>
				<path class="st33" d="M70,152.7c-0.7-0.5-1.7-1.2-1.7-2.3v-28c0-1.1,1-2.5,1.6-3.1"/>
				<path class="st34" d="M109.3,152.7c0.7-0.5,1.7-1.2,1.7-2.3v-28c0-1.1-1-2.5-1.6-3.1"/>
				<path class="st33" d="M109.3,152.7c0.7-0.5,1.7-1.2,1.7-2.3v-28c0-1.1-1-2.5-1.6-3.1"/>
				<path class="st35" d="M96.1,86.8c-0.2-1-0.1-1.9,0.6-2.6"/>
				<path class="st36" d="M108.7,119.1c-0.4-2.4-11.9-29.9-11.9-29.9c-0.3-0.6-0.6-1.5-0.8-2.3"/>
				<line class="st35" x1="108.7" y1="154.9" x2="108.7" y2="119.1"/>
				<path class="st37" d="M103.8,160.6c2.9-1.3,4.9-3.3,4.9-5.7"/>
				<path class="st37" d="M75.6,160.6c3.2,1.4,8.2,2.2,14.1,2.2s10.9-0.8,14.1-2.2"/>
				<path class="st37" d="M70.7,154.9c0,2.4,2,4.4,4.9,5.7"/>
				<line class="st37" x1="70.7" y1="119.1" x2="70.7" y2="154.9"/>
				<path class="st38" d="M82.6,84.2c1.5,0.7,0.5,3.6-0.1,4.9c0,0-11.5,27.5-11.9,29.9"/>
				<path class="st39" d="M80.9,84.3L80.9,84.3c2.1-0.5,2,2.2,1.4,3.6c0,0-11.8,28.3-12.2,30.8v36.8c0,2.4,2.1,4.5,5.1,5.8
					c3.3,1.4,8.5,2.2,14.5,2.2s11.2-0.8,14.5-2.2c3-1.3,5.1-3.4,5.1-5.8v-36.8c-0.4-2.5-12.2-30.8-12.2-30.8
					c-0.6-1.4-0.6-4.1,1.4-3.6"/>
				<path class="st40" d="M86.7,118.9V83.3c1-0.1,2-0.1,3-0.1s2,0.1,3,0.1v35.6H86.7z"/>
			</g>
			<g class="st28">
				<defs>
					<path id="SVGID_34_" d="M87.9,83.3v35.6h3.6V83.3c0.2,0-0.8-0.1-1.8-0.1S87.7,83.2,87.9,83.3"/>
				</defs>
				<clipPath id="SVGID_35_">
					<use xlink:href="#SVGID_34_"  style="overflow:visible;"/>
				</clipPath>
				
					<linearGradient id="SVGID_36_" gradientUnits="userSpaceOnUse" x1="0.2477" y1="174.0989" x2="1.2477" y2="174.0989" gradientTransform="matrix(0 -35.7 35.7 0 -6125.6328 127.712)">
					<stop  offset="0" style="stop-color:#D9D9D9"/>
					<stop  offset="5.000000e-02" style="stop-color:#D9D9D9"/>
					<stop  offset="0.5" style="stop-color:#FFFFFF"/>
					<stop  offset="1" style="stop-color:#F2F2F2"/>
				</linearGradient>
				<rect x="87.7" y="83.2" class="st41" width="4" height="35.7"/>
			</g>
			<g class="st28">
				<defs>
					<rect id="SVGID_37_" x="53.5" y="82.8" width="72.4" height="81"/>
				</defs>
				<clipPath id="SVGID_38_">
					<use xlink:href="#SVGID_37_"  style="overflow:visible;"/>
				</clipPath>
				<path class="st42" d="M111.3,147.7c8.7-6.6,14.3-17,14.3-28.7c0-19.8-16.1-35.9-35.9-35.9S53.8,99.2,53.8,119
					c0,11.7,5.6,22.1,14.2,28.6"/>
			</g>
		</g>
	</g>
	<g id="data_x5F_upload_x5F_b" class="st26">
		<g class="st27">
			<defs>
				
					<rect id="SVGID_39_" x="169.4" y="86.1" transform="matrix(0.6877 -0.726 0.726 0.6877 -23.2182 190.5662)" width="81" height="72.4"/>
			</defs>
			<clipPath id="SVGID_40_">
				<use xlink:href="#SVGID_39_"  style="overflow:visible;"/>
			</clipPath>
			<g class="st43">
				<defs>
					<path id="SVGID_41_" d="M186.8,94.5c-13.6,14.4-13,37.1,1.4,50.8c14.4,13.6,37.1,13,50.8-1.4c13.6-14.4,13-37.1-1.4-50.8
						S200.4,80.1,186.8,94.5"/>
				</defs>
				<clipPath id="SVGID_42_">
					<use xlink:href="#SVGID_41_"  style="overflow:visible;"/>
				</clipPath>
				
					<linearGradient id="SVGID_43_" gradientUnits="userSpaceOnUse" x1="2.728484e-12" y1="172.6" x2="1" y2="172.6" gradientTransform="matrix(-72.0425 1.9533 -1.9533 -72.0425 586.4212 12552.6895)">
					<stop  offset="0" style="stop-color:#404040"/>
					<stop  offset="1" style="stop-color:#191919"/>
				</linearGradient>
				<polygon class="st44" points="262.2,67 160.7,69.8 163.5,171.3 265,168.5 				"/>
			</g>
			<g class="st43">
				<defs>
					
						<rect id="SVGID_44_" x="169.4" y="86.1" transform="matrix(0.6877 -0.726 0.726 0.6877 -23.2182 190.5662)" width="81" height="72.4"/>
				</defs>
				<clipPath id="SVGID_45_">
					<use xlink:href="#SVGID_44_"  style="overflow:visible;"/>
				</clipPath>
				<circle class="st45" cx="212.8" cy="119.1" r="35.9"/>
			</g>
			<g class="st43">
				<defs>
					<path id="SVGID_46_" d="M230.4,88c1.9,1.1-0.1,3-1.5,3.6c0,0-28,12.4-30,14l-25.3,26.7c-1.6,1.7-1.6,4.7-0.3,7.7
						c1.4,3.3,4.7,7.4,9,11.6c4.4,4.1,8.7,7.1,12,8.4c3.1,1.1,6,1,7.7-0.7l25.3-26.7c1.4-2.1,12.3-30.8,12.3-30.8
						c0.5-1.5,2.3-3.5,3.5-1.7c-1.6-2.4-3.5-4.8-5.6-6.9C235.4,91.2,232.9,89.4,230.4,88"/>
				</defs>
				<clipPath id="SVGID_47_">
					<use xlink:href="#SVGID_46_"  style="overflow:visible;"/>
				</clipPath>
				
					<linearGradient id="SVGID_48_" gradientUnits="userSpaceOnUse" x1="9.094947e-13" y1="172.6" x2="1" y2="172.6" gradientTransform="matrix(-55.4068 58.494 -58.494 -55.4068 10333.6025 9656.4395)">
					<stop  offset="0" style="stop-color:#2B2B2B"/>
					<stop  offset="6.942080e-02" style="stop-color:#393939"/>
					<stop  offset="0.1616" style="stop-color:#444444"/>
					<stop  offset="0.265" style="stop-color:#474747"/>
					<stop  offset="0.5318" style="stop-color:#2E2E2E"/>
					<stop  offset="1" style="stop-color:#2E2E2E"/>
				</linearGradient>
				<polygon class="st46" points="223.3,79.7 168.1,138 196.5,165 251.8,106.7 				"/>
			</g>
			<g class="st43">
				<defs>
					
						<rect id="SVGID_49_" x="169.4" y="86.1" transform="matrix(0.6877 -0.726 0.726 0.6877 -23.2182 190.5662)" width="81" height="72.4"/>
				</defs>
				<clipPath id="SVGID_50_">
					<use xlink:href="#SVGID_49_"  style="overflow:visible;"/>
				</clipPath>
				<path class="st47" d="M175.4,130.1c-0.2-0.8-0.4-2,0.3-2.8l19.3-20.3c0.8-0.8,2.4-1.1,3.3-1.1"/>
				<path class="st48" d="M175.4,130.1c-0.2-0.8-0.4-2,0.3-2.8l19.3-20.3c0.8-0.8,2.4-1.1,3.3-1.1"/>
				<path class="st49" d="M203.9,157.1c0.9,0.1,2.1,0.3,2.8-0.5l19.3-20.3c0.8-0.8,1-2.5,1-3.4"/>
				<path class="st48" d="M203.9,157.1c0.9,0.1,2.1,0.3,2.8-0.5l19.3-20.3c0.8-0.8,1-2.5,1-3.4"/>
				<path class="st50" d="M239.6,100.2c0.5-0.9,1.2-1.4,2.2-1.5"/>
				<path class="st51" d="M226.6,132.3c1.4-2,11.9-29.9,11.9-29.9c0.2-0.6,0.6-1.5,1-2.2"/>
				<line class="st50" x1="202" y1="158.3" x2="226.6" y2="132.3"/>
				<path class="st52" d="M194.5,159c3,1.1,5.8,1,7.5-0.8"/>
				<path class="st52" d="M174,139.7c1.4,3.2,4.4,7.2,8.7,11.3s8.5,6.9,11.7,8.1"/>
				<path class="st52" d="M174.4,132.1c-1.7,1.7-1.6,4.6-0.4,7.5"/>
				<line class="st52" x1="199" y1="106.2" x2="174.4" y2="132.1"/>
				<path class="st53" d="M231.6,89c0.6,1.5-2.1,3-3.4,3.5c0,0-27.3,12.1-29.2,13.5"/>
				<path class="st54" d="M230.3,87.9L230.3,87.9c1.9,1.1-0.1,3-1.5,3.6c0,0-28,12.4-30,14l-25.3,26.7c-1.7,1.7-1.6,4.7-0.3,7.7
					c1.4,3.3,4.7,7.4,9,11.6c4.4,4.1,8.7,7.1,12,8.4c3.1,1.1,6,1,7.7-0.7l25.3-26.7c1.4-2.1,12.3-30.8,12.3-30.8
					c0.5-1.4,2.4-3.4,3.5-1.7"/>
				<path class="st55" d="M210.7,117l24.5-25.8c0.8,0.6,1.5,1.3,2.2,2c0.7,0.7,1.4,1.4,2.1,2.1l-24.5,25.8L210.7,117z"/>
			</g>
			<g class="st43">
				<defs>
					<path id="SVGID_51_" d="M236.1,92l-24.5,25.8l2.6,2.5l24.5-25.8c0.1,0.1-0.5-0.6-1.2-1.3C236.7,92.5,236,91.8,236.1,92"/>
				</defs>
				<clipPath id="SVGID_52_">
					<use xlink:href="#SVGID_51_"  style="overflow:visible;"/>
				</clipPath>
				
					<linearGradient id="SVGID_53_" gradientUnits="userSpaceOnUse" x1="2.137067e-07" y1="172.6" x2="1" y2="172.6" gradientTransform="matrix(24.5505 -25.9184 25.9184 24.5505 -4260.604 -4118.3384)">
					<stop  offset="0" style="stop-color:#D9D9D9"/>
					<stop  offset="5.000000e-02" style="stop-color:#D9D9D9"/>
					<stop  offset="0.5" style="stop-color:#FFFFFF"/>
					<stop  offset="1" style="stop-color:#F2F2F2"/>
				</linearGradient>
				<polygon class="st56" points="214.4,120.5 238.9,94.5 236,91.8 211.5,117.7 				"/>
			</g>
			<g class="st43">
				<defs>
					
						<rect id="SVGID_54_" x="169.4" y="86.1" transform="matrix(0.6877 -0.726 0.726 0.6877 -23.2182 190.5662)" width="81" height="72.4"/>
				</defs>
				<clipPath id="SVGID_55_">
					<use xlink:href="#SVGID_54_"  style="overflow:visible;"/>
				</clipPath>
				<path class="st57" d="M208.8,154.8c10.9,1.2,22.1-2.5,30.1-11c13.6-14.4,13-37.1-1.4-50.8s-37.1-13-50.8,1.4
					c-8,8.5-11.1,19.9-9.4,30.5"/>
			</g>
		</g>
	</g>
	<g id="data_x5F_upload_x5F_a" class="st26">
		<g class="st27">
			<defs>
				
					<rect id="SVGID_56_" x="179.7" y="81.8" transform="matrix(0.726 -0.6877 0.6877 0.726 -24.9315 181.965)" width="72.4" height="81"/>
			</defs>
			<clipPath id="SVGID_57_">
				<use xlink:href="#SVGID_56_"  style="overflow:visible;"/>
			</clipPath>
			<g class="st58">
				<defs>
					<path id="SVGID_58_" d="M239,94.5c13.6,14.4,13,37.1-1.4,50.8s-37.1,13-50.8-1.4c-13.6-14.4-13-37.1,1.4-50.8
						S225.4,80.1,239,94.5"/>
				</defs>
				<clipPath id="SVGID_59_">
					<use xlink:href="#SVGID_58_"  style="overflow:visible;"/>
				</clipPath>
				
					<linearGradient id="SVGID_60_" gradientUnits="userSpaceOnUse" x1="2.728484e-12" y1="172.6" x2="1" y2="172.6" gradientTransform="matrix(72.0425 1.9533 1.9533 -72.0425 -160.6451 12552.6895)">
					<stop  offset="0" style="stop-color:#404040"/>
					<stop  offset="1" style="stop-color:#191919"/>
				</linearGradient>
				<polygon class="st59" points="163.6,67 265.1,69.8 262.3,171.3 160.8,168.5 				"/>
			</g>
			<g class="st58">
				<defs>
					
						<rect id="SVGID_61_" x="179.7" y="81.8" transform="matrix(0.726 -0.6877 0.6877 0.726 -24.9315 181.965)" width="72.4" height="81"/>
				</defs>
				<clipPath id="SVGID_62_">
					<use xlink:href="#SVGID_61_"  style="overflow:visible;"/>
				</clipPath>
				<circle class="st60" cx="212.9" cy="119.1" r="35.9"/>
			</g>
			<g class="st58">
				<defs>
					<path id="SVGID_63_" d="M195.4,88c-1.9,1.1,0.1,3,1.5,3.6c0,0,28,12.4,30,14l25.3,26.7c1.6,1.7,1.6,4.7,0.3,7.7
						c-1.4,3.3-4.7,7.4-9,11.6c-4.4,4.1-8.7,7.1-12,8.4c-3.1,1.1-6,1-7.7-0.7l-25.3-26.7c-1.4-2.1-12.3-30.8-12.3-30.8
						c-0.5-1.5-2.3-3.5-3.5-1.7c1.6-2.4,3.5-4.8,5.6-6.9C190.4,91.2,192.9,89.4,195.4,88"/>
				</defs>
				<clipPath id="SVGID_64_">
					<use xlink:href="#SVGID_63_"  style="overflow:visible;"/>
				</clipPath>
				
					<linearGradient id="SVGID_65_" gradientUnits="userSpaceOnUse" x1="9.094947e-13" y1="172.6" x2="1" y2="172.6" gradientTransform="matrix(55.4068 58.494 58.494 -55.4068 -9907.8271 9656.4395)">
					<stop  offset="0" style="stop-color:#2B2B2B"/>
					<stop  offset="6.942080e-02" style="stop-color:#393939"/>
					<stop  offset="0.1616" style="stop-color:#444444"/>
					<stop  offset="0.265" style="stop-color:#474747"/>
					<stop  offset="0.5318" style="stop-color:#2E2E2E"/>
					<stop  offset="1" style="stop-color:#2E2E2E"/>
				</linearGradient>
				<polygon class="st61" points="202.5,79.7 257.7,138 229.2,165 174,106.7 				"/>
			</g>
			<g class="st58">
				<defs>
					
						<rect id="SVGID_66_" x="179.7" y="81.8" transform="matrix(0.726 -0.6877 0.6877 0.726 -24.9315 181.965)" width="72.4" height="81"/>
				</defs>
				<clipPath id="SVGID_67_">
					<use xlink:href="#SVGID_66_"  style="overflow:visible;"/>
				</clipPath>
				<path class="st62" d="M250.4,130.1c0.2-0.8,0.4-2-0.3-2.8l-19.3-20.3c-0.8-0.8-2.4-1.1-3.3-1.1"/>
				<path class="st63" d="M250.4,130.1c0.2-0.8,0.4-2-0.3-2.8l-19.3-20.3c-0.8-0.8-2.4-1.1-3.3-1.1"/>
				<path class="st64" d="M221.9,157.1c-0.9,0.1-2.1,0.3-2.8-0.5l-19.3-20.3c-0.8-0.8-1-2.5-1-3.4"/>
				<path class="st63" d="M221.9,157.1c-0.9,0.1-2.1,0.3-2.8-0.5l-19.3-20.3c-0.8-0.8-1-2.5-1-3.4"/>
				<path class="st65" d="M186.1,100.2c-0.5-0.9-1.2-1.4-2.2-1.5"/>
				<path class="st66" d="M199.2,132.3c-1.4-2-11.9-29.9-11.9-29.9c-0.2-0.6-0.6-1.5-1-2.2"/>
				<line class="st65" x1="223.8" y1="158.3" x2="199.2" y2="132.3"/>
				<path class="st67" d="M231.3,159c-3,1.1-5.8,1-7.5-0.8"/>
				<path class="st67" d="M251.8,139.7c-1.4,3.2-4.4,7.2-8.7,11.3c-4.3,4.1-8.5,6.9-11.7,8.1"/>
				<path class="st67" d="M251.4,132.1c1.7,1.7,1.6,4.6,0.4,7.5"/>
				<line class="st67" x1="226.8" y1="106.2" x2="251.4" y2="132.1"/>
				<path class="st68" d="M194.2,89c-0.6,1.5,2.1,3,3.4,3.5c0,0,27.3,12.1,29.2,13.5"/>
				<path class="st69" d="M195.5,87.9L195.5,87.9c-1.9,1.1,0.1,3,1.5,3.6c0,0,28,12.4,30,14l25.3,26.7c1.7,1.7,1.6,4.7,0.3,7.7
					c-1.4,3.3-4.7,7.4-9,11.6c-4.4,4.1-8.7,7.1-12,8.4c-3.1,1.1-6,1-7.7-0.7l-25.3-26.7c-1.4-2.1-12.3-30.8-12.3-30.8
					c-0.5-1.4-2.4-3.4-3.5-1.7"/>
				<path class="st70" d="M215,117l-24.5-25.8c-0.8,0.6-1.5,1.3-2.2,2c-0.7,0.7-1.4,1.4-2.1,2.1l24.5,25.8L215,117z"/>
			</g>
			<g class="st58">
				<defs>
					<path id="SVGID_68_" d="M189.7,92l24.5,25.8l-2.6,2.5l-24.5-25.8c-0.1,0.1,0.5-0.6,1.2-1.3C189,92.5,189.8,91.8,189.7,92"/>
				</defs>
				<clipPath id="SVGID_69_">
					<use xlink:href="#SVGID_68_"  style="overflow:visible;"/>
				</clipPath>
				
					<linearGradient id="SVGID_70_" gradientUnits="userSpaceOnUse" x1="2.137076e-07" y1="172.6" x2="1" y2="172.6" gradientTransform="matrix(-24.5505 -25.9184 -25.9184 24.5505 4686.3799 -4118.3384)">
					<stop  offset="0" style="stop-color:#D9D9D9"/>
					<stop  offset="5.000000e-02" style="stop-color:#D9D9D9"/>
					<stop  offset="0.5" style="stop-color:#FFFFFF"/>
					<stop  offset="1" style="stop-color:#F2F2F2"/>
				</linearGradient>
				<polygon class="st71" points="211.4,120.5 186.9,94.5 189.8,91.8 214.3,117.7 				"/>
			</g>
			<g class="st58">
				<defs>
					
						<rect id="SVGID_71_" x="179.7" y="81.8" transform="matrix(0.726 -0.6877 0.6877 0.726 -24.9315 181.965)" width="72.4" height="81"/>
				</defs>
				<clipPath id="SVGID_72_">
					<use xlink:href="#SVGID_71_"  style="overflow:visible;"/>
				</clipPath>
				<path class="st72" d="M217,154.8c-10.9,1.2-22.1-2.5-30.1-11c-13.6-14.4-13-37.1,1.4-50.8c14.4-13.6,37.1-13,50.8,1.4
					c8,8.5,11.1,19.9,9.4,30.5"/>
			</g>
		</g>
	</g>
	<g id="aircraft_x5F_upload">
		<g>
			<defs>
				
					<rect id="SVGID_73_" x="46.5" y="86.1" transform="matrix(0.6877 -0.726 0.726 0.6877 -61.5976 101.3488)" width="81" height="72.4"/>
			</defs>
			<clipPath id="SVGID_74_">
				<use xlink:href="#SVGID_73_"  style="overflow:visible;"/>
			</clipPath>
			<g class="st73">
				<defs>
					<path id="SVGID_75_" d="M63.9,94.5c-13.6,14.4-13,37.1,1.4,50.8s37.1,13,50.8-1.4c13.6-14.4,13-37.1-1.4-50.8
						S77.5,80.1,63.9,94.5"/>
				</defs>
				<clipPath id="SVGID_76_">
					<use xlink:href="#SVGID_75_"  style="overflow:visible;"/>
				</clipPath>
				
					<linearGradient id="SVGID_77_" gradientUnits="userSpaceOnUse" x1="2.728484e-12" y1="172.6" x2="1" y2="172.6" gradientTransform="matrix(-72.0425 1.9533 -1.9533 -72.0425 463.5332 12552.6895)">
					<stop  offset="0" style="stop-color:#404040"/>
					<stop  offset="1" style="stop-color:#191919"/>
				</linearGradient>
				<polygon class="st74" points="139.3,67 37.8,69.8 40.6,171.3 142.1,168.5 				"/>
			</g>
			<g class="st73">
				<defs>
					
						<rect id="SVGID_78_" x="46.5" y="86.1" transform="matrix(0.6877 -0.726 0.726 0.6877 -61.5976 101.3488)" width="81" height="72.4"/>
				</defs>
				<clipPath id="SVGID_79_">
					<use xlink:href="#SVGID_78_"  style="overflow:visible;"/>
				</clipPath>
				<circle class="st75" cx="90" cy="119.1" r="35.9"/>
			</g>
			<g class="st73">
				<defs>
					<path id="SVGID_80_" d="M107.5,88c1.9,1.1-0.1,3-1.5,3.6c0,0-28,12.4-30,14l-25.3,26.7c-1.6,1.7-1.6,4.7-0.3,7.7
						c1.4,3.3,4.7,7.4,9,11.6c4.4,4.1,8.7,7.1,12,8.4c3.1,1.1,6,1,7.7-0.7l25.3-26.7c1.4-2.1,12.3-30.8,12.3-30.8
						c0.5-1.5,2.3-3.5,3.5-1.7c-1.6-2.4-3.5-4.8-5.6-6.9C112.5,91.2,110,89.4,107.5,88"/>
				</defs>
				<clipPath id="SVGID_81_">
					<use xlink:href="#SVGID_80_"  style="overflow:visible;"/>
				</clipPath>
				
					<linearGradient id="SVGID_82_" gradientUnits="userSpaceOnUse" x1="9.094947e-13" y1="172.6" x2="1" y2="172.6" gradientTransform="matrix(-55.4068 58.494 -58.494 -55.4068 10210.7148 9656.4395)">
					<stop  offset="0" style="stop-color:#2B2B2B"/>
					<stop  offset="6.942080e-02" style="stop-color:#393939"/>
					<stop  offset="0.1616" style="stop-color:#444444"/>
					<stop  offset="0.265" style="stop-color:#474747"/>
					<stop  offset="0.5318" style="stop-color:#2E2E2E"/>
					<stop  offset="1" style="stop-color:#2E2E2E"/>
				</linearGradient>
				<polygon class="st76" points="100.4,79.7 45.2,138 73.7,165 128.9,106.7 				"/>
			</g>
			<g class="st73">
				<defs>
					
						<rect id="SVGID_83_" x="46.5" y="86.1" transform="matrix(0.6877 -0.726 0.726 0.6877 -61.5976 101.3488)" width="81" height="72.4"/>
				</defs>
				<clipPath id="SVGID_84_">
					<use xlink:href="#SVGID_83_"  style="overflow:visible;"/>
				</clipPath>
				<path class="st77" d="M52.5,130.1c-0.2-0.8-0.4-2,0.3-2.8l19.3-20.3c0.8-0.8,2.4-1.1,3.3-1.1"/>
				<path class="st78" d="M52.5,130.1c-0.2-0.8-0.4-2,0.3-2.8l19.3-20.3c0.8-0.8,2.4-1.1,3.3-1.1"/>
				<path class="st79" d="M81,157.1c0.9,0.1,2.1,0.3,2.8-0.5l19.3-20.3c0.8-0.8,1-2.5,1-3.4"/>
				<path class="st78" d="M81,157.1c0.9,0.1,2.1,0.3,2.8-0.5l19.3-20.3c0.8-0.8,1-2.5,1-3.4"/>
				<path class="st80" d="M116.7,100.2c0.5-0.9,1.2-1.4,2.2-1.5"/>
				<path class="st81" d="M103.7,132.3c1.4-2,11.9-29.9,11.9-29.9c0.2-0.6,0.6-1.5,1-2.2"/>
				<line class="st80" x1="79.1" y1="158.3" x2="103.7" y2="132.3"/>
				<path class="st82" d="M71.6,159c3,1.1,5.8,1,7.5-0.8"/>
				<path class="st82" d="M51.1,139.7c1.4,3.2,4.4,7.2,8.7,11.3s8.5,6.9,11.7,8.1"/>
				<path class="st82" d="M51.5,132.1c-1.7,1.7-1.6,4.6-0.4,7.5"/>
				<line class="st82" x1="76.1" y1="106.2" x2="51.5" y2="132.1"/>
				<path class="st83" d="M108.7,89c0.6,1.5-2.1,3-3.4,3.5c0,0-27.3,12.1-29.2,13.5"/>
				<path class="st84" d="M107.4,87.9L107.4,87.9c1.9,1.1-0.1,3-1.5,3.6c0,0-28,12.4-30,14l-25.3,26.7c-1.7,1.7-1.6,4.7-0.3,7.7
					c1.4,3.3,4.7,7.4,9,11.6c4.4,4.1,8.7,7.1,12,8.4c3.1,1.1,6,1,7.7-0.7l25.3-26.7c1.4-2.1,12.3-30.8,12.3-30.8
					c0.5-1.4,2.4-3.4,3.5-1.7"/>
				<path class="st85" d="M87.8,117l24.5-25.8c0.8,0.6,1.5,1.3,2.2,2c0.7,0.7,1.4,1.4,2.1,2.1l-24.5,25.8L87.8,117z"/>
			</g>
			<g class="st73">
				<defs>
					<path id="SVGID_85_" d="M113.2,92l-24.5,25.8l2.6,2.5l24.5-25.8c0.1,0.1-0.5-0.6-1.2-1.3C113.9,92.5,113.1,91.8,113.2,92"/>
				</defs>
				<clipPath id="SVGID_86_">
					<use xlink:href="#SVGID_85_"  style="overflow:visible;"/>
				</clipPath>
				
					<linearGradient id="SVGID_87_" gradientUnits="userSpaceOnUse" x1="2.137076e-07" y1="172.6" x2="1" y2="172.6" gradientTransform="matrix(24.5505 -25.9184 25.9184 24.5505 -4383.4922 -4118.3384)">
					<stop  offset="0" style="stop-color:#D9D9D9"/>
					<stop  offset="5.000000e-02" style="stop-color:#D9D9D9"/>
					<stop  offset="0.5" style="stop-color:#FFFFFF"/>
					<stop  offset="1" style="stop-color:#F2F2F2"/>
				</linearGradient>
				<polygon class="st86" points="91.5,120.5 116,94.5 113.1,91.8 88.6,117.7 				"/>
			</g>
			<g class="st73">
				<defs>
					
						<rect id="SVGID_88_" x="46.5" y="86.1" transform="matrix(0.6877 -0.726 0.726 0.6877 -61.5976 101.3488)" width="81" height="72.4"/>
				</defs>
				<clipPath id="SVGID_89_">
					<use xlink:href="#SVGID_88_"  style="overflow:visible;"/>
				</clipPath>
				<path class="st87" d="M85.9,154.8c10.9,1.2,22.1-2.5,30.1-11c13.6-14.4,13-37.1-1.4-50.8s-37.1-13-50.8,1.4
					c-8,8.5-11.1,19.9-9.4,30.5"/>
			</g>
		</g>
	</g>
	<g id="aircraft_x5F_maint" class="st26">
		<g class="st27">
			<defs>
				
					<rect id="SVGID_90_" x="56.8" y="81.8" transform="matrix(0.726 -0.6877 0.6877 0.726 -58.6021 97.4563)" width="72.4" height="81"/>
			</defs>
			<clipPath id="SVGID_91_">
				<use xlink:href="#SVGID_90_"  style="overflow:visible;"/>
			</clipPath>
			<g class="st88">
				<defs>
					<path id="SVGID_92_" d="M116.1,94.5c13.6,14.4,13,37.1-1.4,50.8s-37.1,13-50.8-1.4c-13.6-14.4-13-37.1,1.4-50.8
						S102.5,80.1,116.1,94.5"/>
				</defs>
				<clipPath id="SVGID_93_">
					<use xlink:href="#SVGID_92_"  style="overflow:visible;"/>
				</clipPath>
				
					<linearGradient id="SVGID_94_" gradientUnits="userSpaceOnUse" x1="2.728484e-12" y1="172.6" x2="1" y2="172.6" gradientTransform="matrix(72.0425 1.9533 1.9533 -72.0425 -283.5332 12552.6895)">
					<stop  offset="0" style="stop-color:#404040"/>
					<stop  offset="1" style="stop-color:#191919"/>
				</linearGradient>
				<polygon class="st89" points="40.7,67 142.2,69.8 139.4,171.3 37.9,168.5 				"/>
			</g>
			<g class="st88">
				<defs>
					
						<rect id="SVGID_95_" x="56.8" y="81.8" transform="matrix(0.726 -0.6877 0.6877 0.726 -58.6021 97.4563)" width="72.4" height="81"/>
				</defs>
				<clipPath id="SVGID_96_">
					<use xlink:href="#SVGID_95_"  style="overflow:visible;"/>
				</clipPath>
				<circle class="st90" cx="90" cy="119.1" r="35.9"/>
			</g>
			<g class="st88">
				<defs>
					<path id="SVGID_97_" d="M72.5,88c-1.9,1.1,0.1,3,1.5,3.6c0,0,28,12.4,30,14l25.3,26.7c1.6,1.7,1.6,4.7,0.3,7.7
						c-1.4,3.3-4.7,7.4-9,11.6c-4.4,4.1-8.7,7.1-12,8.4c-3.1,1.1-6,1-7.7-0.7l-25.3-26.7c-1.4-2.1-12.3-30.8-12.3-30.8
						c-0.5-1.5-2.3-3.5-3.5-1.7c1.6-2.4,3.5-4.8,5.6-6.9C67.5,91.2,70,89.4,72.5,88"/>
				</defs>
				<clipPath id="SVGID_98_">
					<use xlink:href="#SVGID_97_"  style="overflow:visible;"/>
				</clipPath>
				
					<linearGradient id="SVGID_99_" gradientUnits="userSpaceOnUse" x1="9.094947e-13" y1="172.6" x2="1" y2="172.6" gradientTransform="matrix(55.4068 58.494 58.494 -55.4068 -10030.7148 9656.4395)">
					<stop  offset="0" style="stop-color:#2B2B2B"/>
					<stop  offset="6.942080e-02" style="stop-color:#393939"/>
					<stop  offset="0.1616" style="stop-color:#444444"/>
					<stop  offset="0.265" style="stop-color:#474747"/>
					<stop  offset="0.5318" style="stop-color:#2E2E2E"/>
					<stop  offset="1" style="stop-color:#2E2E2E"/>
				</linearGradient>
				<polygon class="st91" points="79.6,79.7 134.8,138 106.3,165 51.1,106.7 				"/>
			</g>
			<g class="st88">
				<defs>
					
						<rect id="SVGID_100_" x="56.8" y="81.8" transform="matrix(0.726 -0.6877 0.6877 0.726 -58.6021 97.4563)" width="72.4" height="81"/>
				</defs>
				<clipPath id="SVGID_101_">
					<use xlink:href="#SVGID_100_"  style="overflow:visible;"/>
				</clipPath>
				<path class="st92" d="M127.5,130.1c0.2-0.8,0.4-2-0.3-2.8l-19.3-20.3c-0.8-0.8-2.4-1.1-3.3-1.1"/>
				<path class="st93" d="M127.5,130.1c0.2-0.8,0.4-2-0.3-2.8l-19.3-20.3c-0.8-0.8-2.4-1.1-3.3-1.1"/>
				<path class="st94" d="M99,157.1c-0.9,0.1-2.1,0.3-2.8-0.5l-19.3-20.3c-0.8-0.8-1-2.5-1-3.4"/>
				<path class="st93" d="M99,157.1c-0.9,0.1-2.1,0.3-2.8-0.5l-19.3-20.3c-0.8-0.8-1-2.5-1-3.4"/>
				<path class="st95" d="M63.3,100.2c-0.5-0.9-1.2-1.4-2.2-1.5"/>
				<path class="st96" d="M76.3,132.3c-1.4-2-11.9-29.9-11.9-29.9c-0.2-0.6-0.6-1.5-1-2.2"/>
				<line class="st95" x1="100.9" y1="158.3" x2="76.3" y2="132.3"/>
				<path class="st97" d="M108.4,159c-3,1.1-5.8,1-7.5-0.8"/>
				<path class="st97" d="M128.9,139.7c-1.4,3.2-4.4,7.2-8.7,11.3c-4.3,4.1-8.5,6.9-11.7,8.1"/>
				<path class="st97" d="M128.5,132.1c1.7,1.7,1.6,4.6,0.4,7.5"/>
				<line class="st97" x1="103.9" y1="106.2" x2="128.5" y2="132.1"/>
				<path class="st98" d="M71.3,89c-0.6,1.5,2.1,3,3.4,3.5c0,0,27.3,12.1,29.2,13.5"/>
				<path class="st99" d="M72.6,87.9L72.6,87.9c-1.9,1.1,0.1,3,1.5,3.6c0,0,28,12.4,30,14l25.3,26.7c1.7,1.7,1.6,4.7,0.3,7.7
					c-1.4,3.3-4.7,7.4-9,11.6c-4.4,4.1-8.7,7.1-12,8.4c-3.1,1.1-6,1-7.7-0.7l-25.3-26.7c-1.4-2.1-12.3-30.8-12.3-30.8
					c-0.5-1.4-2.4-3.4-3.5-1.7"/>
				<path class="st100" d="M92.2,117L67.7,91.2c-0.8,0.6-1.5,1.3-2.2,2c-0.7,0.7-1.4,1.4-2.1,2.1l24.5,25.8L92.2,117z"/>
			</g>
			<g class="st88">
				<defs>
					<path id="SVGID_102_" d="M66.8,92l24.5,25.8l-2.6,2.5L64.2,94.5c-0.1,0.1,0.5-0.6,1.2-1.3C66.1,92.5,66.9,91.8,66.8,92"/>
				</defs>
				<clipPath id="SVGID_103_">
					<use xlink:href="#SVGID_102_"  style="overflow:visible;"/>
				</clipPath>
				
					<linearGradient id="SVGID_104_" gradientUnits="userSpaceOnUse" x1="2.137085e-07" y1="172.6" x2="1" y2="172.6" gradientTransform="matrix(-24.5505 -25.9184 -25.9184 24.5505 4563.4922 -4118.3384)">
					<stop  offset="0" style="stop-color:#D9D9D9"/>
					<stop  offset="5.000000e-02" style="stop-color:#D9D9D9"/>
					<stop  offset="0.5" style="stop-color:#FFFFFF"/>
					<stop  offset="1" style="stop-color:#F2F2F2"/>
				</linearGradient>
				<polygon class="st101" points="88.5,120.5 64,94.5 66.9,91.8 91.4,117.7 				"/>
			</g>
			<g class="st88">
				<defs>
					
						<rect id="SVGID_105_" x="56.8" y="81.8" transform="matrix(0.726 -0.6877 0.6877 0.726 -58.6021 97.4563)" width="72.4" height="81"/>
				</defs>
				<clipPath id="SVGID_106_">
					<use xlink:href="#SVGID_105_"  style="overflow:visible;"/>
				</clipPath>
				<path class="st102" d="M94.1,154.8c-10.9,1.2-22.1-2.5-30.1-11c-13.6-14.4-13-37.1,1.4-50.8s37.1-13,50.8,1.4
					c8,8.5,11.1,19.9,9.4,30.5"/>
			</g>
		</g>
	</g>
</g>
<g id="data_x5F_upload_x5F_hotspots" class="st103">
	<circle id="selection_x5F_off" class="st104" cx="213.1" cy="66.6" r="20"/>
	
		<ellipse id="selection_x5F_b" transform="matrix(0.1602 -0.9871 0.9871 0.1602 126.8608 316.107)" class="st104" cx="249.2" cy="83.5" rx="20" ry="20"/>
	<circle id="selection_x5F_a" class="st104" cx="176.4" cy="83.5" r="20"/>
</g>
<g id="aircraft_x5F_hotspots" class="st103">
	<circle id="selection_x5F_norm" class="st104" cx="90" cy="66.6" r="20"/>
	<ellipse id="selection_x5F_upload" class="st104" cx="131.2" cy="83.5" rx="25.1" ry="20"/>
	<ellipse id="selection_x5F_maint" class="st104" cx="44.7" cy="83.5" rx="28.6" ry="20"/>
</g>
</svg>
